<svg id="_x33_d-rotate" enable-background="new 0 0 300 300" height="512" viewBox="0 0 300 300" width="512" xmlns="http://www.w3.org/2000/svg"><g><path d="m85.516 58.484c.781.781 1.805 1.172 2.828 1.172s2.047-.391 2.828-1.172l2.828-2.828 2.828 2.828c.781.781 1.805 1.172 2.828 1.172s2.047-.391 2.828-1.172c1.562-1.562 1.562-4.094 0-5.656l-2.828-2.828 2.828-2.828c1.562-1.562 1.562-4.094 0-5.656s-4.094-1.562-5.656 0l-2.828 2.828-2.828-2.828c-1.562-1.562-4.094-1.562-5.656 0s-1.562 4.094 0 5.656l2.828 2.828-2.828 2.828c-1.563 1.563-1.563 4.094 0 5.656z"/><path d="m230.586 220.006c-6.801 0-12.336 5.535-12.336 12.338 0 6.805 5.535 12.34 12.336 12.34 6.805 0 12.34-5.535 12.34-12.34 0-6.803-5.535-12.338-12.34-12.338zm0 16.678c-2.391 0-4.336-1.947-4.336-4.34s1.945-4.338 4.336-4.338c2.395 0 4.34 1.945 4.34 4.338s-1.946 4.34-4.34 4.34z"/><path d="m240.53 192c0-2.502-2.028-4.53-4.53-4.53s-4.53 2.028-4.53 4.53c0 2.501 2.028 4.529 4.53 4.529s4.53-2.028 4.53-4.529z"/><path d="m160.469 115.545c8.398 2.547 15.574 8.086 20.203 15.596.758 1.227 2.066 1.9 3.41 1.9.715 0 1.441-.191 2.094-.596 1.883-1.158 2.465-3.623 1.309-5.504-5.656-9.172-14.426-15.938-24.695-19.053-2.121-.637-4.348.555-4.988 2.666-.642 2.116.553 4.348 2.667 4.991z"/><path d="m203.816 123.638c-9.782-19.886-30.196-33.638-53.816-33.638-4.271 0-8.433.466-12.454 1.318 4.362-32.496 11.764-49.318 16.454-49.318 3.324 0 10.414 11.281 15.273 41.553.352 2.182 2.402 3.658 4.582 3.314 2.184-.35 3.668-2.402 3.316-4.584-5.144-32.039-12.941-48.283-23.171-48.283-12.965 0-20.714 27.638-24.669 59.746-22.916 8.449-39.331 30.441-39.331 56.254 0 5.286.755 10.387 2.045 15.274-32.986-4.348-50.045-11.831-50.045-16.557 0-3.326 11.281-10.412 41.551-15.271 2.184-.35 3.668-2.402 3.316-4.584-.352-2.18-2.402-3.674-4.582-3.314-32.039 5.141-48.285 12.936-48.285 23.169 0 13.108 28.252 20.882 60.81 24.796 6.471 15.131 19.011 27.023 34.521 32.741 3.955 32.108 11.704 59.746 24.669 59.746 15.663 0 22.504-39.205 25.247-63.66 11.52-6.463 20.712-16.595 25.943-28.827 32.559-3.915 60.81-11.688 60.81-24.796 0-15.461-38.478-22.321-62.184-25.079zm-53.816-25.638c28.672 0 52 23.326 52 52 0 5.691-.952 11.156-2.649 16.285-14.033 1.489-30.451 2.432-49.351 2.432-5.442 0-10.614-.1-15.656-.245-.203-5.907-.344-11.999-.344-18.472 0-19.273.982-35.955 2.523-50.166 4.307-1.158 8.81-1.834 13.477-1.834zm-52 52c0-20.931 12.457-38.965 30.322-47.204-1.603 16.09-2.322 32.741-2.322 47.204 0 5.773.115 11.896.354 18.191-9.34-.417-17.885-1.076-25.705-1.906-1.697-5.129-2.649-10.594-2.649-16.285zm6.169 24.525c7.508.723 15.116 1.261 22.555 1.619.376 6.978.902 14.069 1.598 21.061-10.298-4.75-18.807-12.729-24.153-22.68zm49.831 83.475c-4.69 0-12.092-16.822-16.454-49.318 4.021.852 8.183 1.318 12.454 1.318 7.289 0 14.248-1.372 20.717-3.763-4.892 38.899-13.249 51.763-16.717 51.763zm-4-56c-4.667 0-9.17-.676-13.477-1.834-.787-7.253-1.429-15.127-1.863-23.708 5.29.171 10.445.259 15.34.259 14.053 0 30.168-.683 45.831-2.192-8.778 16.337-26.024 27.475-45.831 27.475zm57.955-36.726c1.29-4.886 2.045-9.988 2.045-15.274 0-6.218-.953-12.217-2.716-17.862 38.121 4.925 50.716 13.185 50.716 16.579 0 4.726-17.059 12.209-50.045 16.557z"/></g></svg>